<svg xmlns="http://www.w3.org/2000/svg" viewBox="0 0 180 180" fill="none" shape-rendering="auto" aria-hidden="true"><metadata xmlns:rdf="http://www.w3.org/1999/02/22-rdf-syntax-ns#" xmlns:xsi="http://www.w3.org/2001/XMLSchema-instance" xmlns:dc="http://purl.org/dc/elements/1.1/" xmlns:dcterms="http://purl.org/dc/terms/"><rdf:RDF><rdf:Description><dc:title>Bottts</dc:title><dc:creator>Pablo Stanley</dc:creator><dc:source xsi:type="dcterms:URI">https://bottts.com/</dc:source><dcterms:license xsi:type="dcterms:URI">https://bottts.com/</dcterms:license><dc:rights>Remix of “Bottts” (https://bottts.com/) by “Pablo Stanley”, licensed under “Free for personal and commercial use” (https://bottts.com/)</dc:rights></rdf:Description></rdf:RDF></metadata><defs><g id="sides-round-6ba7cc1b"><mask id="sidesRound-a" style="mask-type:luminance"><ellipse cx="144" cy="38.5" rx="18" ry="22.5" fill="white"/><ellipse cx="18" cy="22.5" rx="18" ry="22.5" transform="matrix(-1 0 0 1 42 16)" fill="white"/></mask><g mask="url(#sidesRound-a)"><path d="M-6 0h180v76H-6z" fill="#15a594"/><path d="M-6 0h180v76H-6z" fill="white" fill-opacity=".3"/><rect x="14" width="140" height="76" fill="black" fill-opacity=".2"/></g></g><g id="top-antenna-6ba7cc1b"><mask id="topAntenna-a" style="mask-type:luminance"><path d="M30 38.6a2 2 0 0 1 2-2h20a2 2 0 0 1 2 2v14H30z" fill="white"/><rect x="40" y="5.59" width="4" height="31" fill="white"/></mask><g mask="url(#topAntenna-a)"><path d="M-8 .6H92v52H-8z" fill="#15a594"/><path d="M-8 3.6H92v52H-8z" fill="white" fill-opacity=".3"/><rect x="30" y="36.59" width="24" height="16" fill="white" fill-opacity=".2"/></g><circle cx="42" cy="8.59" r="8" fill="#FFE65C"/><circle cx="45" cy="5.59" r="3" fill="white"/></g><g id="head-square03-6ba7cc1b"><mask id="headSquare03-a" style="mask-type:luminance"><path fill-rule="evenodd" clip-rule="evenodd" d="M0 18A18 18 0 0 1 18 0h94a18 18 0 0 1 18 18v27.15a40 40 0 0 1-2.28 13.31L110.24 108a18 18 0 0 1-16.98 12H36.74a18 18 0 0 1-16.98-12L2.28 58.45A40 40 0 0 1 0 45.15z" fill="white"/></mask><g mask="url(#headSquare03-a)"><path d="M-2-2h134v124H-2z" fill="#15a594"/></g></g><g id="mouth-smile02-6ba7cc1b"><path fill-rule="evenodd" clip-rule="evenodd" d="M14 6.22C14 17.78 20.47 24 34 24c13.52 0 20-6.34 20-17.78C54 5.5 53.17 4 51 4H17c-2.05 0-3 1.38-3 2.22" fill="black" fill-opacity=".8"/><mask id="mouthSmile02-a" style="mask-type:luminance"><path fill-rule="evenodd" clip-rule="evenodd" d="M14 6.22C14 17.78 20.47 24 34 24c13.52 0 20-6.34 20-17.78C54 5.5 53.17 4 51 4H17c-2.05 0-3 1.38-3 2.22" fill="white"/></mask><g mask="url(#mouthSmile02-a)"><rect x="26" y="-2" width="16" height="14" rx="2" fill="white"/></g></g><g id="eyes-bulging-6ba7cc1b"><circle cx="28" cy="24" r="18" fill="black" fill-opacity=".2"/><circle cx="74" cy="24" r="18" fill="black" fill-opacity=".2"/><circle cx="28" cy="24" r="15" fill="#F1EEDA"/><circle cx="74" cy="24" r="15" fill="#F1EEDA"/><rect x="26" y="15" width="10" height="10" rx="2" fill="black" fill-opacity=".8"/><rect x="74" y="15" width="10" height="10" rx="2" fill="black" fill-opacity=".8"/></g><clipPath id="clip-6ba7cc1b"><rect width="180" height="180" rx="0" ry="0"/></clipPath></defs><g clip-path="url(#clip-6ba7cc1b)"><rect width="180" height="180" fill="#ffd5dc"/><use transform="translate(6 66)" href="#sides-round-6ba7cc1b"/><use transform="translate(49 -.6)" href="#top-antenna-6ba7cc1b"/><use transform="translate(25 44)" href="#head-square03-6ba7cc1b"/><use transform="translate(56 128)" href="#mouth-smile02-6ba7cc1b"/><use transform="translate(38 76)" href="#eyes-bulging-6ba7cc1b"/></g></svg>