<svg xmlns="http://www.w3.org/2000/svg" viewBox="0 0 400 400" fill="none" shape-rendering="auto" aria-hidden="true"><metadata xmlns:rdf="http://www.w3.org/1999/02/22-rdf-syntax-ns#" xmlns:xsi="http://www.w3.org/2001/XMLSchema-instance" xmlns:dc="http://purl.org/dc/elements/1.1/" xmlns:dcterms="http://purl.org/dc/terms/"><rdf:RDF><rdf:Description><dc:title>Adventurer Neutral</dc:title><dc:creator>Lisa Wischofsky</dc:creator><dc:source xsi:type="dcterms:URI">https://www.figma.com/community/file/1184595184137881796</dc:source><dcterms:license xsi:type="dcterms:URI">https://creativecommons.org/licenses/by/4.0/</dcterms:license><dc:rights>Remix of “Adventurer Neutral” (https://www.figma.com/community/file/1184595184137881796) by “Lisa Wischofsky”, licensed under “CC BY 4.0” (https://creativecommons.org/licenses/by/4.0/)</dc:rights></rdf:Description></rdf:RDF></metadata><defs><g id="eyes-variant06-2e3bdb72"><path d="M246.16.08c1.79.47 1.92 1.9 1.98 3.5.02 6.73-.9 13.42-.75 20.17 8.34.57 16.09 2 24.09 4.4 3.09-7.1 5.83-14.34 8.73-21.51.94-1.82 1.46-4.16 4.03-3.81 2.35.23 2.58 3 1.77 4.75-2.95 7.55-6.03 15.07-9.1 22.57a70 70 0 0 1 18.26 10.84c4.88-4.58 9.6-9.35 14.6-13.8 1.62-1.56 3.32-1.05 5.35-1.14-.18 1.98.26 3.67-1.37 5.17-4.75 4.73-9.71 9.27-14.6 13.87 3.57 5.14 6.56 10.24 6.7 16.7.65 9.85-4.85 18.23-12.06 24.42-11.14 9.42-26.17 14.24-40.45 16.1-16.6 1.8-33.82.83-49.57-5.06-9.18-3.45-18.18-8.76-24.4-16.5-5.04-6.41-7.78-14.68-5.7-22.8 2.48-9.88 9.94-17.24 18.38-22.43 14.79-8.93 32.37-12.08 49.46-12.05.24-6.57.54-13.17 1.1-19.72.07-1.98 1.24-4.28 3.57-3.7M56.28 18.19c1.93-.2 2.6 2.2 3.14 3.63 1.19 4.97 1.3 10.2 2.17 15.24a99 99 0 0 1 25.73.76c10.86 2.02 22.05 6.02 30.13 13.83 4.96 4.66 8.49 11.22 8.27 18.15-.46 7.42-4.43 13.69-9.92 18.48-8.9 7.86-21.44 11.98-33 13.7-15.72 2.24-32.98.69-47.4-6.24-8.49-4.18-17-11.26-19.2-20.87-1.29-5.2-.04-9.95 1.97-14.74q-5.8-5.29-11.45-10.73c-.82-1-2.4-2.18-2-3.6.02-2.55 3.45-3.09 5-1.38 3.99 3.5 7.7 7.34 11.67 10.88a55 55 0 0 1 11.16-9.24c-2.74-6.13-5.52-12.24-8.25-18.36-1.1-2.2-.85-4.4-.7-6.76 1.25.2 2.63.25 3.79.76 1.18 1.2 1.85 2.96 2.57 4.46 2.5 5.77 5.18 11.45 7.58 17.25 6-2.57 11.89-4.32 18.29-5.56-.4-5.4-1.7-10.7-2.04-16.1 0-1.54.4-4.09 2.5-3.56" fill="black"/><path d="M223.8 30.47c14.63-2.22 30-1.53 44.23 2.67 9.51 2.94 19.21 7.45 25.93 15.02 4.3 4.85 7.04 11.05 6 17.64-1.06 7.24-5.77 12.9-11.36 17.3-8.8 6.84-20.25 10.76-31.1 12.82-15.74 2.8-32.36 2.12-47.65-2.63-9.43-3.02-19.09-7.77-25.56-15.48-4.32-5.1-6.88-12.41-4.86-19 1.56-6.56 6.67-12 11.93-15.92 9.35-6.8 21.12-10.62 32.44-12.42M55.83 43.72c15.6-3 32.9-1.76 47.4 5.05 6.37 3.03 13.4 8.25 15.73 15.18 2.07 5.65.38 11.7-3.3 16.24-4.64 5.75-11.75 9.78-18.59 12.34a80.5 80.5 0 0 1-39.78 3.81c-9.02-1.36-18.44-4.32-25.9-9.68-5.23-3.87-9.63-9.04-9.9-15.83-.23-6.6 3.84-12.1 8.71-16.14 7.2-5.8 16.63-9.2 25.6-10.97" fill="white"/><path d="M276.54 45.98c2.15-1.56 4.62-.3 5.94 1.67 1.83 3.14 2.15 6.61 2.49 10.16.43 5.18.88 10.72-.25 15.84a6 6 0 0 1-2.03 3.53c-2.95 1.46-6.88-1.24-7.64-4.16-1.98-6.22-1.92-13.23-1.4-19.69.4-2.37.64-5.9 2.86-7.35M97.6 53.13a4.04 4.04 0 0 1 5.97 2.42c1.79 5.1 1.92 10.9 2.05 16.26-.15 3.13-.37 8.05-3.81 9.46-2.6.94-4.6-1.38-5.4-3.58-1.88-5.25-1.76-11.4-1.51-16.9.25-2.35.45-6.27 2.7-7.66" fill="black"/></g><g id="eyebrows-variant05-2e3bdb72"><path d="M207.6 32.86c6.17-.42 13.1-.6 18.45 2.95 3.68 2.44 5.4 6.35 4.48 10.74-1.55 6.16-6.62 10.92-11.61 14.5a67.6 67.6 0 0 1-30.57 11.53c-5.6.53-12.5.43-17.47-2.55-3.63-2.13-5.9-6.12-5.2-10.36 1.02-5.75 5.49-10.5 9.94-13.96 9.19-7.03 20.55-11.34 31.98-12.85M76.58 49.73c9.1-.36 18.3.51 26.3 5.24 3.86 2.26 7.35 5.9 7.9 10.49.34 4.21-1.96 7.8-5.2 10.27-4.51 3.55-9.86 5-15.42 5.99-9.95 1.02-20.55.32-29.48-4.58-3.87-2.3-7.88-5.85-8.47-10.57-.73-4.27 2.02-8.47 5.4-10.84 5.4-3.87 12.42-5.7 18.97-6" fill="black"/></g><g id="mouth-variant20-2e3bdb72"><path d="M111.54 70.03c4.67 1.28 8.87 4.7 12.16 8.17 1.37 1.66 3.56 3.88 3.05 6.2-.46 2.46-3.75 3.02-5.05.83-2.6-3.53-5.52-6.54-9.45-8.58-2.27-1.46-6.72-.53-6.6-4.14.47-3.02 3.5-2.9 5.9-2.48m-7.06 13.33a12.3 12.3 0 0 1 8.78 11.06c1.3 13.18-9.39 25.8-21.75 29.19-12.46 3.66-28.87-1.1-35.07-13.17-2.47-4.2-3.73-9.26-1.94-13.96 1.78-4.05 5.82-5.66 9.97-6.1 5.1-.59 9.55 1.1 13.9 3.54 3.82-4.04 7.74-7.6 12.9-9.81a20 20 0 0 1 13.2-.75" fill="black"/><path d="M105.4 90.5c3.25 3.37 2.26 9.49.47 13.38-4.28 10.05-15.1 16.13-25.9 15-7.3-1.2-14.31-4.12-18.2-10.77-1.43-2.56-3.43-6.58-2.01-9.44 2.28-3.76 8.77-3.17 12.28-1.8 2.75.76 5.53 4.08 8.4 3.58 3.66-3.56 6.47-7.47 11.17-9.88 4.32-2.4 9.63-3.3 13.8-.08" fill="#8F2E45"/></g><clipPath id="clip-2e3bdb72"><rect width="400" height="400" rx="0" ry="0"/></clipPath></defs><g clip-path="url(#clip-2e3bdb72)"><rect width="400" height="400" fill="#c0aede"/><use transform="translate(36.7 101.2)" href="#eyes-variant06-2e3bdb72"/><use transform="translate(36.64 29.5)" href="#eyebrows-variant05-2e3bdb72"/><use transform="translate(114.51 217.6)" href="#mouth-variant20-2e3bdb72"/></g></svg>