<svg xmlns="http://www.w3.org/2000/svg" viewBox="0 0 400 400" fill="none" shape-rendering="auto" aria-hidden="true"><metadata xmlns:rdf="http://www.w3.org/1999/02/22-rdf-syntax-ns#" xmlns:xsi="http://www.w3.org/2001/XMLSchema-instance" xmlns:dc="http://purl.org/dc/elements/1.1/" xmlns:dcterms="http://purl.org/dc/terms/"><rdf:RDF><rdf:Description><dc:title>Adventurer Neutral</dc:title><dc:creator>Lisa Wischofsky</dc:creator><dc:source xsi:type="dcterms:URI">https://www.figma.com/community/file/1184595184137881796</dc:source><dcterms:license xsi:type="dcterms:URI">https://creativecommons.org/licenses/by/4.0/</dcterms:license><dc:rights>Remix of “Adventurer Neutral” (https://www.figma.com/community/file/1184595184137881796) by “Lisa Wischofsky”, licensed under “CC BY 4.0” (https://creativecommons.org/licenses/by/4.0/)</dc:rights></rdf:Description></rdf:RDF></metadata><defs><g id="eyes-variant05-de45dce4"><path d="M258.77 3.28c13.52 3.69 25.28 11.87 34.03 22.75 7.5-5.17 14.74-10.73 22.37-15.71l3.07 1.28c-.34 2.1-.24 3.64-2.24 4.9-6.6 4.79-13.31 9.45-19.92 14.23 3.77 6.35 7.07 12.73 8.56 20.03 1.59 7.7 2.58 16.1 1.14 23.88-.44 2.76-3.06 3.5-5.47 3.7-19.7 1.03-39.4 3.02-59 5.35-11.06 1.46-22.15 1.93-33.21 3.58-4.5.68-9.03 1.18-13.54 1.79-5 .7-9.54 1.77-14.54.33-4.84-13.86-5.54-28.92-1.07-42.97a65.2 65.2 0 0 1 28.7-36.27C222.7.9 241.8-1.52 258.77 3.28" fill="black"/><path d="M249.77 7.18a59.8 59.8 0 0 1 42.62 28.54c6.6 11.12 9.16 23.82 8.14 36.67-4.76.4-9.48.97-14.25 1.18-18.01 1.2-35.9 3.32-53.81 5.48 1.05-2.96 2.25-6.07 2.52-9.2.8-9.38-4.1-18.83-12.31-23.45-5.31-3.2-11.43-3.75-17.45-2.72-11.6 2.17-20.3 13.34-19.52 25.13 0 6.06 2.66 11.12 6.34 15.74l-7.3.74a59.3 59.3 0 0 1 1.6-42.4 59.2 59.2 0 0 1 33.74-32.47c9.48-3.74 19.65-4.48 29.7-3.26" fill="white"/><path d="M100.82 32.24a55 55 0 0 1 24.51 36.47 58 58 0 0 1-1.24 25.15c-5.34 1.1-10.4.57-15.8.57-24.03-.24-48-.16-72 1.46-5.88-.14-12.64 1.57-17.85-1.24-.94-4.53-2.07-9.19-2.27-13.82-.33-10.1 2.18-19.99 6.83-28.94-5.99-3.98-12.32-7.55-18.19-11.72-1.89-1.4-1.69-2.69-.82-4.69 2.76-1.07 4.5.51 6.78 1.81q7.61 4.95 15.27 9.82a55.8 55.8 0 0 1 31.73-21.84 55.3 55.3 0 0 1 43.05 6.97" fill="black"/><path d="M85.1 31.33a49.4 49.4 0 0 1 29.24 23.44 49 49 0 0 1 5.07 34.42l-5.6.12c2.12-4.63 3.57-9.36 2.87-14.52-.9-8.64-7.3-16.11-15.55-18.64a23.5 23.5 0 0 0-11.8-.2C80.3 58.09 73.06 66.48 72.66 75.8c-.47 4.7.9 8.93 2.74 13.17-13.38.1-26.76.6-40.1 1.6-3.68.21-7.9.7-11.5-.23-1.64-3.05-1.63-7.15-1.78-10.54-.55-13.95 5.57-28.01 15.83-37.42 12.47-11.6 30.9-16.01 47.25-11.05" fill="white"/></g><g id="eyebrows-variant03-de45dce4"><path d="M140.37 28.87c2.26-.07 2.85 1.7 2.65 3.64-.5 4.68-.77 9.78-2.32 14.23-1.33.4-2.66.58-4.03.82-1.12-4.8 0-10.22.71-15.1.36-1.7.77-3.81 3-3.6m20.77 6.29c.03 3.2-.36 6.36-.67 9.55 41.7.52 83.32.38 125.01.75 2.13.04 3.96.86 5.9 1.64-.6 1.48-.23 3.83-2.25 4.09-8.05 1.3-16.58.52-24.74.88-17.35.62-34.7 1-52.06 1.53-17.03.2-34 1.25-51.05 1.42-3.33.4-6.09-2.72-7.24-5.47.02-4.5 1.02-9.15 2.06-13.5 1.28-2.48 2.83-1.67 5-.9m-36.94 5.54c-.1 4.87-.05 10.81-2.28 15.24-3.22 1.5-7.12 1.79-10.6 2.47-25.64 4.7-51.3 9.35-76.95 14.1-4.24.68-8.7 2.14-13 2.03-2.62-.48-3.32-3.75-.86-5 3.2-1.42 6.94-1.75 10.32-2.59 29.1-6.7 58.15-13.6 87.24-20.32q.58-2.86 1.27-5.7c1.6-.2 3.23-.24 4.85-.23" fill="black"/></g><g id="mouth-variant28-de45dce4"><path d="M130.69 16.19c.5 6.88-.8 13.42-1.56 20.2a245 245 0 0 1-19.15 70.24c-3.65 7.33-6.74 15.74-13.95 20.34-4.25 3.06-10.3 1.77-14.6-.52-9.5-4.69-15.15-12.28-21.77-20.2-10.97-13.4-18.86-28.33-26.05-44.01-3.56-8.2-6.83-16.5-10.25-24.74-.87-2.13-1.17-4.1 1.07-5.43 4.72 0 9.3 1.5 14.06 1.5 9.29.25 18.74.4 27.98-.81 19.98-2.29 39.64-8.3 57.99-16.44 2.13-1.07 4.03-.6 6.23-.13" fill="black"/><path d="M125.42 22.39c-1.93 15.16-3.98 30.2-8.01 44.98-4.69 16.77-10.27 33.84-19.05 48.96-2.17 3.44-5.3 7.34-9.89 6.51-7.43-1.55-14.07-8-18.68-13.73-9.88-10.97-17.9-23.26-24.61-36.38-6.13-11.12-10.64-22.89-15.7-34.52 4.8.44 9.6.8 14.4 1.2 1.14 5.94 4.6 11.51 8.46 16.07 5.08 5.94 12.23 9.8 20.13 9.97a28 28 0 0 0 16.68-7.36c8.02-7.35 11.96-17.07 14.48-27.43 7.4-2.48 14.64-5.15 21.8-8.27" fill="#8F2E45"/><path d="M97.14 32.52c-2.55 8.79-7.09 18.39-14.95 23.59-5.47 3.77-12.7 4.4-18.57 1.12-7-3.86-10.9-10.5-13.93-17.65 16.1-.33 32.01-2.32 47.45-7.06" fill="white"/></g><clipPath id="clip-de45dce4"><rect width="400" height="400" rx="0" ry="0"/></clipPath></defs><g clip-path="url(#clip-de45dce4)"><rect width="400" height="400" fill="#ffdfbf"/><use transform="translate(36.7 101.2)" href="#eyes-variant05-de45dce4"/><use transform="translate(36.64 29.5)" href="#eyebrows-variant03-de45dce4"/><use transform="translate(114.51 217.6)" href="#mouth-variant28-de45dce4"/></g></svg>