<svg xmlns="http://www.w3.org/2000/svg" viewBox="0 0 180 180" fill="none" shape-rendering="auto" aria-hidden="true"><metadata xmlns:rdf="http://www.w3.org/1999/02/22-rdf-syntax-ns#" xmlns:xsi="http://www.w3.org/2001/XMLSchema-instance" xmlns:dc="http://purl.org/dc/elements/1.1/" xmlns:dcterms="http://purl.org/dc/terms/"><rdf:RDF><rdf:Description><dc:title>Bottts</dc:title><dc:creator>Pablo Stanley</dc:creator><dc:source xsi:type="dcterms:URI">https://bottts.com/</dc:source><dcterms:license xsi:type="dcterms:URI">https://bottts.com/</dcterms:license><dc:rights>Remix of “Bottts” (https://bottts.com/) by “Pablo Stanley”, licensed under “Free for personal and commercial use” (https://bottts.com/)</dc:rights></rdf:Description></rdf:RDF></metadata><defs><g id="sides-squareAssymetric-11acf331"><mask id="sidesSquareAssymetric-a" style="mask-type:luminance"><rect x="4" y="31" width="36" height="30" rx="4" fill="white"/><rect x="14" y="15" width="26" height="30" rx="4" fill="white"/><rect x="133" y="23" width="36" height="30" rx="4" fill="white"/><rect x="128" y="8" width="36" height="60" rx="4" fill="white"/></mask><g mask="url(#sidesSquareAssymetric-a)"><path d="M-6 0h180v76H-6z" fill="#e25a75"/><path d="M-6 0h180v76H-6z" fill="white" fill-opacity=".3"/><rect x="-6" y="47" width="180" height="29" fill="black" fill-opacity=".1"/><circle cx="155" cy="20" r="5" fill="white" fill-opacity=".6"/><circle cx="155" cy="36" r="5" fill="white" fill-opacity=".6"/></g></g><filter id="topGlowingBulb01-a" x="16" y=".59" width="52" height="48" filterUnits="userSpaceOnUse" color-interpolation-filters="sRGB"><feFlood flood-opacity="0" result="r0"/><feColorMatrix in="SourceAlpha" values="0 0 0 0 0 0 0 0 0 0 0 0 0 0 0 0 0 0 127 0" result="r1"/><feOffset/><feGaussianBlur stdDeviation="4"/><feColorMatrix values="0 0 0 0 1 0 0 0 0 1 0 0 0 0 1 0 0 0 0.5 0"/><feBlend in2="r0" result="r2"/><feBlend in="SourceGraphic" in2="r2" result="r3"/><feColorMatrix in="SourceAlpha" values="0 0 0 0 0 0 0 0 0 0 0 0 0 0 0 0 0 0 127 0" result="r1"/><feOffset/><feGaussianBlur stdDeviation="2"/><feComposite in2="r1" operator="arithmetic" k2="-1" k3="1"/><feColorMatrix values="0 0 0 0 1 0 0 0 0 1 0 0 0 0 1 0 0 0 0.5 0"/><feBlend in2="r3" result="r4"/></filter><g id="top-glowingBulb01-11acf331"><g filter="url(#topGlowingBulb01-a)"><path fill-rule="evenodd" clip-rule="evenodd" d="M24 24.6a16 16 0 0 1 16-16h4a16 16 0 0 1 16 16v8a8 8 0 0 1-8 8H32a8 8 0 0 1-8-8z" fill="white" fill-opacity=".3"/></g><path d="M41 12.1c4.93 0 9.37 2.12 12.44 5.51" stroke="white" stroke-width="2" stroke-linecap="round"/><path d="M54.14 23.42 44 33.57v7.02h-4v-7.17l-10-10 2.83-2.83 9 9h.48l9.02-9z" fill="white" fill-opacity=".8"/><rect x="14" y="40.59" width="56" height="12" rx="1" fill="#48494B"/></g><g id="head-round02-11acf331"><mask id="headRound02-a" style="mask-type:luminance"><path fill-rule="evenodd" clip-rule="evenodd" d="M0 31v-1c.18-.48.4-1.5 1-3 .83-3.06 2.78-6.56 6-10C16.7 6.6 35.17 0 65 0s48.3 6.6 58 17c3.22 3.44 5.17 6.94 6 10 .6 1.5.82 2.52 1 3v40c0-.1-.03.5 0 1a54 54 0 0 1-1 6c-1.19 6-3.4 11.91-7 17-9.72 16.34-27.74 26-57 26s-47.28-9.66-57-26c-3.6-5.1-5.8-11-7-17a54 54 0 0 1-1-6c.03-.45 0-1.32 0-1z" fill="white"/></mask><g mask="url(#headRound02-a)"><path d="M-4-2h138v124H-4z" fill="#e25a75"/></g></g><g id="mouth-grill03-11acf331"><rect y="1" width="68" height="22" rx="5" fill="black" fill-opacity=".2"/><rect x="4" y="5" width="60" height="14" rx="2" fill="white"/><rect x="14" y="5" width="4" height="14" fill="black" fill-opacity=".1"/><rect x="38" y="5" width="4" height="14" fill="black" fill-opacity=".1"/><rect x="26" y="5" width="4" height="14" fill="black" fill-opacity=".1"/><rect x="50" y="5" width="4" height="14" fill="black" fill-opacity=".1"/></g><g id="eyes-sensor-11acf331"><path d="M28 4a20 20 0 0 1 19.9 18h41.52a5 5 0 1 1 0 4H47.9A20 20 0 1 1 28 4" fill="black" fill-opacity=".2"/><circle cx="94" cy="24" r="2" fill="white"/><circle cx="28" cy="24" r="16" fill="black" fill-opacity=".6"/><circle cx="34" cy="16" r="3" fill="white"/></g><clipPath id="clip-11acf331"><rect width="180" height="180" rx="0" ry="0"/></clipPath></defs><g clip-path="url(#clip-11acf331)"><rect width="180" height="180" fill="#c0aede"/><use transform="translate(6 66)" href="#sides-squareAssymetric-11acf331"/><use transform="translate(49 -.6)" href="#top-glowingBulb01-11acf331"/><use transform="translate(25 44)" href="#head-round02-11acf331"/><use transform="translate(56 128)" href="#mouth-grill03-11acf331"/><use transform="translate(38 76)" href="#eyes-sensor-11acf331"/></g></svg>