<svg xmlns="http://www.w3.org/2000/svg" viewBox="0 0 180 180" fill="none" shape-rendering="auto" aria-hidden="true"><metadata xmlns:rdf="http://www.w3.org/1999/02/22-rdf-syntax-ns#" xmlns:xsi="http://www.w3.org/2001/XMLSchema-instance" xmlns:dc="http://purl.org/dc/elements/1.1/" xmlns:dcterms="http://purl.org/dc/terms/"><rdf:RDF><rdf:Description><dc:title>Bottts</dc:title><dc:creator>Pablo Stanley</dc:creator><dc:source xsi:type="dcterms:URI">https://bottts.com/</dc:source><dcterms:license xsi:type="dcterms:URI">https://bottts.com/</dcterms:license><dc:rights>Remix of “Bottts” (https://bottts.com/) by “Pablo Stanley”, licensed under “Free for personal and commercial use” (https://bottts.com/)</dc:rights></rdf:Description></rdf:RDF></metadata><defs><g id="sides-round-6987816d"><mask id="sidesRound-a" style="mask-type:luminance"><ellipse cx="144" cy="38.5" rx="18" ry="22.5" fill="white"/><ellipse cx="18" cy="22.5" rx="18" ry="22.5" transform="matrix(-1 0 0 1 42 16)" fill="white"/></mask><g mask="url(#sidesRound-a)"><path d="M-6 0h180v76H-6z" fill="#7a9f12"/><path d="M-6 0h180v76H-6z" fill="white" fill-opacity=".3"/><rect x="14" width="140" height="76" fill="black" fill-opacity=".2"/></g></g><filter id="topGlowingBulb02-a" x="14" y="5.59" width="56" height="47" filterUnits="userSpaceOnUse" color-interpolation-filters="sRGB"><feFlood flood-opacity="0" result="r0"/><feColorMatrix in="SourceAlpha" values="0 0 0 0 0 0 0 0 0 0 0 0 0 0 0 0 0 0 127 0" result="r1"/><feOffset/><feGaussianBlur stdDeviation="4"/><feColorMatrix values="0 0 0 0 1 0 0 0 0 1 0 0 0 0 1 0 0 0 0.5 0"/><feBlend in2="r0" result="r2"/><feBlend in="SourceGraphic" in2="r2" result="r3"/><feColorMatrix in="SourceAlpha" values="0 0 0 0 0 0 0 0 0 0 0 0 0 0 0 0 0 0 127 0" result="r1"/><feOffset/><feGaussianBlur stdDeviation="2"/><feComposite in2="r1" operator="arithmetic" k2="-1" k3="1"/><feColorMatrix values="0 0 0 0 1 0 0 0 0 1 0 0 0 0 1 0 0 0 0.5 0"/><feBlend in2="r3" result="r4"/></filter><g id="top-glowingBulb02-6987816d"><g filter="url(#topGlowingBulb02-a)"><path fill-rule="evenodd" clip-rule="evenodd" d="M22 33.6a20 20 0 1 1 40 0v11H22z" fill="white" fill-opacity=".3"/></g><ellipse cx="42" cy="30.59" rx="4" ry="6" fill="white" fill-opacity=".6"/><path d="M42 16.1c4.93 0 9.37 2.12 12.44 5.51m2.43 3.5q1.05 1.98 1.53 4.23" stroke="white" stroke-width="2" stroke-linecap="round"/><rect x="12" y="36.59" width="60" height="16" rx="1" fill="#48494B"/></g><g id="head-round01-6987816d"><mask id="headRound01-a" style="mask-type:luminance"><path fill-rule="evenodd" clip-rule="evenodd" d="M66 0c58.35 0 64 40.69 64 78 0 33.32-25.47 42-64 42-37.46 0-66-8.69-66-42C0 40.69 7.65 0 66 0" fill="white"/></mask><g mask="url(#headRound01-a)"><path d="M-4-2h138v124H-4z" fill="#7a9f12"/></g></g><g id="mouth-smile02-6987816d"><path fill-rule="evenodd" clip-rule="evenodd" d="M14 6.22C14 17.78 20.47 24 34 24c13.52 0 20-6.34 20-17.78C54 5.5 53.17 4 51 4H17c-2.05 0-3 1.38-3 2.22" fill="black" fill-opacity=".8"/><mask id="mouthSmile02-a" style="mask-type:luminance"><path fill-rule="evenodd" clip-rule="evenodd" d="M14 6.22C14 17.78 20.47 24 34 24c13.52 0 20-6.34 20-17.78C54 5.5 53.17 4 51 4H17c-2.05 0-3 1.38-3 2.22" fill="white"/></mask><g mask="url(#mouthSmile02-a)"><rect x="26" y="-2" width="16" height="14" rx="2" fill="white"/></g></g><g id="eyes-happy-6987816d"><path d="m18 19 12-2M20 31c0-3.31 2.9-6 7-6 3.1 0 6 2.69 6 6m53-11-12-3m10 14c0-3.31-2.9-6-6-6-4.1 0-7 2.69-7 6" stroke="black" stroke-width="4" stroke-linecap="round" stroke-linejoin="round"/></g><clipPath id="clip-6987816d"><rect width="180" height="180" rx="0" ry="0"/></clipPath></defs><g clip-path="url(#clip-6987816d)"><rect width="180" height="180" fill="#c0aede"/><use transform="translate(6 66)" href="#sides-round-6987816d"/><use transform="translate(49 -.6)" href="#top-glowingBulb02-6987816d"/><use transform="translate(25 44)" href="#head-round01-6987816d"/><use transform="translate(56 128)" href="#mouth-smile02-6987816d"/><use transform="translate(38 76)" href="#eyes-happy-6987816d"/></g></svg>