<svg xmlns="http://www.w3.org/2000/svg" viewBox="0 0 400 400" fill="none" shape-rendering="auto" aria-hidden="true"><metadata xmlns:rdf="http://www.w3.org/1999/02/22-rdf-syntax-ns#" xmlns:xsi="http://www.w3.org/2001/XMLSchema-instance" xmlns:dc="http://purl.org/dc/elements/1.1/" xmlns:dcterms="http://purl.org/dc/terms/"><rdf:RDF><rdf:Description><dc:title>Adventurer Neutral</dc:title><dc:creator>Lisa Wischofsky</dc:creator><dc:source xsi:type="dcterms:URI">https://www.figma.com/community/file/1184595184137881796</dc:source><dcterms:license xsi:type="dcterms:URI">https://creativecommons.org/licenses/by/4.0/</dcterms:license><dc:rights>Remix of “Adventurer Neutral” (https://www.figma.com/community/file/1184595184137881796) by “Lisa Wischofsky”, licensed under “CC BY 4.0” (https://creativecommons.org/licenses/by/4.0/)</dc:rights></rdf:Description></rdf:RDF></metadata><defs><g id="eyes-variant01-f26e5cf9"><path d="M274.25 9.85c11.85 6.92 21.04 17.51 26.71 29.97 5.93-3.13 11.67-6.68 17.68-9.63 1.8-.95 4.4.55 3.98 2.62.21 1.48-2.02 2.5-3.06 3.23-5.45 3-10.88 6.04-16.34 9.03 1.7 6.87 3.23 13.6 3.24 20.73-.06 12.85-3.69 25.61-10.87 36.3a66 66 0 0 1-31.79 25.28 66 66 0 0 1-38.5 2.03 65 65 0 0 1-40-29.6 63 63 0 0 1-9.3-33 64.4 64.4 0 0 1 15.4-42.92c9.58-11.27 23.24-19.42 37.87-21.9a65.2 65.2 0 0 1 44.98 7.83" fill="black"/><path d="M233.5 7.07a59.7 59.7 0 0 1 44.36 12.14c14.46 11.18 23.27 29.28 22.8 47.59.03 22.44-13.8 43.9-34.2 53.21-10.95 5.12-23.23 7.03-35.16 4.86a59.6 59.6 0 0 1-40.74-27.3 61.5 61.5 0 0 1-8.98-28.72 60.4 60.4 0 0 1 13.88-40.9A59.5 59.5 0 0 1 233.5 7.07" fill="white"/><path d="M74.3 23.71a55 55 0 0 1 34.44 14.65c10.09 9.4 16.54 22.67 17.29 36.47a54.6 54.6 0 0 1-8.01 32.68 55 55 0 0 1-36.73 25.17 54.94 54.94 0 0 1-63.7-42.04c-2.41-9.41-1.61-18.94.99-28.2a606 606 0 0 0-11.32-4.5c-1.9-.78-4-1.44-5.35-3.08-.4-2.4.76-3.92 3.2-3.62 5.2 1.25 10 4.21 15.18 5.57 1.4-1.65 2.24-3.8 3.3-5.68 10.03-17.8 30.32-28.73 50.7-27.4" fill="black"/><path d="M60.8 30.46c18.63-4.25 38.76 3.44 50.01 18.81a51 51 0 0 1 9.73 26.52c.67 13.6-4.44 27.48-14.06 37.18a49.4 49.4 0 0 1-30.18 14.66c-19.94 2.3-40.08-8.85-49-26.78a49.3 49.3 0 0 1 2.36-48.68 49.3 49.3 0 0 1 31.15-21.7" fill="white"/><path d="M262.58 42.23c6.24-.76 12.7.82 17.74 4.57 6.3 4.65 10.27 12.14 10.18 20.01a28 28 0 0 1-4.57 13.62c-4.1 6.13-11.27 10.06-18.6 10.54A24.6 24.6 0 0 1 246.08 81c-6.02-7.97-6.24-19.8-.63-28.03a24.7 24.7 0 0 1 17.13-10.74M92.75 55.29c7.22-.86 14.8 2 19.61 7.47a22 22 0 0 1 5.74 16.04c.04 12-10.69 22.8-22.8 22.28-12.1.1-22.88-10.05-22.87-22.26-.7-11.8 8.67-22.32 20.32-23.53" fill="black"/></g><g id="eyebrows-variant05-f26e5cf9"><path d="M207.6 32.86c6.17-.42 13.1-.6 18.45 2.95 3.68 2.44 5.4 6.35 4.48 10.74-1.55 6.16-6.62 10.92-11.61 14.5a67.6 67.6 0 0 1-30.57 11.53c-5.6.53-12.5.43-17.47-2.55-3.63-2.13-5.9-6.12-5.2-10.36 1.02-5.75 5.49-10.5 9.94-13.96 9.19-7.03 20.55-11.34 31.98-12.85M76.58 49.73c9.1-.36 18.3.51 26.3 5.24 3.86 2.26 7.35 5.9 7.9 10.49.34 4.21-1.96 7.8-5.2 10.27-4.51 3.55-9.86 5-15.42 5.99-9.95 1.02-20.55.32-29.48-4.58-3.87-2.3-7.88-5.85-8.47-10.57-.73-4.27 2.02-8.47 5.4-10.84 5.4-3.87 12.42-5.7 18.97-6" fill="black"/></g><g id="mouth-variant01-f26e5cf9"><path d="M186.48 29.09c2.42 1 1.92 3.4 1.38 5.45-6.78 13.35-16.08 25.18-28.35 33.9-17.2 12.49-38.88 18.4-60.02 17.58-26.81-.96-53.07-12.04-73.44-29.3-.4-2.43-.5-3.72 1.45-5.43 51.83-7.13 106.78-15.03 158.98-22.2" fill="black"/><path d="M180.35 35.91a83.4 83.4 0 0 1-36.37 35 89 89 0 0 1-40.49 9.18c-24.7.18-49-9.01-68.58-23.87 47.93-6.59 97.73-13.8 145.44-20.31" fill="#8F2E45"/></g><clipPath id="clip-f26e5cf9"><rect width="400" height="400" rx="0" ry="0"/></clipPath></defs><g clip-path="url(#clip-f26e5cf9)"><rect width="400" height="400" fill="#ffdfbf"/><use transform="translate(36.7 101.2)" href="#eyes-variant01-f26e5cf9"/><use transform="translate(36.64 29.5)" href="#eyebrows-variant05-f26e5cf9"/><use transform="translate(114.51 217.6)" href="#mouth-variant01-f26e5cf9"/></g></svg>